<?xml version="1.0" encoding="UTF-8" standalone="no"?><!DOCTYPE svg PUBLIC "-//W3C//DTD SVG 1.1//EN" "http://www.w3.org/Graphics/SVG/1.1/DTD/svg11.dtd"><svg width="100%" height="100%" viewBox="0 0 2253 2254" version="1.1" xmlns="http://www.w3.org/2000/svg" xmlns:xlink="http://www.w3.org/1999/xlink" xml:space="preserve" xmlns:serif="http://www.serif.com/" style="fill-rule:evenodd;clip-rule:evenodd;stroke-linejoin:round;stroke-miterlimit:2;"><path d="M743.703,1568.85c-114.439,114.376 -303.451,303.376 -364.125,364.048c-10.851,10.852 -28.395,11.01 -39.439,0.355c-102.083,-99.583 -185.274,-218.412 -243.313,-348.729c-47.572,-106.815 -78.401,-220.991 -90.711,-337.292c-55.935,-528.473 277.052,-1038.62 785.329,-1196.54c108.303,-33.649 221.451,-50.685 334.857,-50.685c609.294,-0 1124.26,518.846 1126.58,1126.58c0.557,145.705 -28.637,291.349 -83.537,426.203c-108.595,266.748 -314.781,465.437 -568.725,595.809c-142.597,73.207 -315.266,104.57 -474.32,104.57l-919.113,0c-11.423,0 -21.704,-6.928 -25.992,-17.515c-4.288,-10.587 -1.727,-22.717 6.476,-30.666c70.103,-67.934 193.121,-187.146 225.872,-218.885c5.261,-5.097 12.299,-7.948 19.624,-7.948c88.642,0 663.315,0 663.315,0l5.529,0.172c469.735,13.046 877.425,-377.097 876.37,-851.74c-0.255,-114.558 -22.924,-223.685 -67.862,-328.964c-43.028,-100.803 -106.674,-193.707 -184.111,-271.144c-77.437,-77.437 -170.341,-141.083 -271.144,-184.111c-104.696,-44.69 -215.003,-67.862 -328.964,-67.862c-114.692,-0 -225.894,22.519 -331.536,67.005c-100.818,42.454 -193.551,105.374 -270.859,182.682c-278.917,278.918 -325.28,722.662 -120.912,1052.51c13.944,22.507 45.338,65.849 45.338,65.849l186.139,-191.639c46.171,-47.538 70.722,-111.995 67.875,-178.203c-4.545,-108.464 47.868,-235.59 149.813,-337.535c99.411,-99.412 222.768,-151.722 329.421,-150.061c2.026,0.06 3.833,1.289 4.635,3.151c0.802,1.862 0.452,4.02 -0.897,5.533c-96.549,108.378 -217.767,245.005 -252.499,288.666c-23.524,29.572 28.726,75.369 56.908,50.278c36.011,-32.061 229.795,-217.39 307.47,-291.776c17.905,-17.097 46.221,-16.646 63.573,1.012c0.175,0.176 0.349,0.353 0.523,0.53c17.234,17.54 17.322,45.628 0.197,63.276c-74.925,76.866 -262.528,269.719 -293.845,305.686c-24.753,28.427 23.832,80.624 52.954,56.922c43.324,-35.261 177.602,-155.521 286.672,-251.457c1.525,-1.344 3.689,-1.683 5.552,-0.87c1.862,0.813 3.085,2.632 3.136,4.663c1.217,106.34 -51.073,229.124 -150.098,328.149c-102.579,102.58 -230.654,155.008 -339.557,149.736c-68.062,-3.476 -134.411,22.044 -182.601,70.234Z" style="fill:#7eb03d;"/></svg>