<svg clip-rule="evenodd" fill-rule="evenodd" stroke-linejoin="round" stroke-miterlimit="2" viewBox="0 0 2253 2254" xmlns="http://www.w3.org/2000/svg"><path d="m743.703 1568.85c-114.439 114.376-303.451 303.376-364.125 364.048-10.851 10.852-28.395 11.01-39.439.355-102.083-99.583-185.274-218.412-243.313-348.729-47.572-106.815-78.401-220.991-90.711-337.292-55.935-528.473 277.052-1038.62 785.329-1196.54 108.303-33.649 221.451-50.685 334.857-50.685 609.294 0 1124.26 518.846 1126.58 1126.58.557 145.705-28.637 291.349-83.537 426.203-108.595 266.748-314.781 465.437-568.725 595.809-142.597 73.207-315.266 104.57-474.32 104.57h-919.113c-11.423 0-21.704-6.928-25.992-17.515s-1.727-22.717 6.476-30.666c70.103-67.934 193.121-187.146 225.872-218.885 5.261-5.097 12.299-7.948 19.624-7.948h663.315l5.529.172c469.735 13.046 877.425-377.097 876.37-851.74-.255-114.558-22.924-223.685-67.862-328.964-43.028-100.803-106.674-193.707-184.111-271.144s-170.341-141.083-271.144-184.111c-104.696-44.69-215.003-67.862-328.964-67.862-114.692 0-225.894 22.519-331.536 67.005-100.818 42.454-193.551 105.374-270.859 182.682-278.917 278.918-325.28 722.662-120.912 1052.51 13.944 22.507 45.338 65.849 45.338 65.849l186.139-191.639c46.171-47.538 70.722-111.995 67.875-178.203-4.545-108.464 47.868-235.59 149.813-337.535 99.411-99.412 222.768-151.722 329.421-150.061 2.026.06 3.833 1.289 4.635 3.151s.452 4.02-.897 5.533c-96.549 108.378-217.767 245.005-252.499 288.666-23.524 29.572 28.726 75.369 56.908 50.278 36.011-32.061 229.795-217.39 307.47-291.776 17.905-17.097 46.221-16.646 63.573 1.012.175.176.349.353.523.53 17.234 17.54 17.322 45.628.197 63.276-74.925 76.866-262.528 269.719-293.845 305.686-24.753 28.427 23.832 80.624 52.954 56.922 43.324-35.261 177.602-155.521 286.672-251.457 1.525-1.344 3.689-1.683 5.552-.87 1.862.813 3.085 2.632 3.136 4.663 1.217 106.34-51.073 229.124-150.098 328.149-102.579 102.58-230.654 155.008-339.557 149.736-68.062-3.476-134.411 22.044-182.601 70.234z" fill="#7eb03d"/></svg>