<?xml version="1.0" encoding="UTF-8" standalone="no"?><!DOCTYPE svg PUBLIC "-//W3C//DTD SVG 1.1//EN" "http://www.w3.org/Graphics/SVG/1.1/DTD/svg11.dtd"><svg width="100%" height="100%" viewBox="0 0 376 32" version="1.1" xmlns="http://www.w3.org/2000/svg" xmlns:xlink="http://www.w3.org/1999/xlink" xml:space="preserve" xmlns:serif="http://www.serif.com/" style="fill-rule:evenodd;clip-rule:evenodd;stroke-linejoin:round;stroke-miterlimit:2;"><path d="M0,20.092l8.887,-0l0,8.637l3.38,-0l0,-8.637l8.909,-0l0,-3.38l-8.909,-0l0,-8.638l-3.38,-0l0,8.638l-8.887,-0l0,3.38Z" style="fill-rule:nonzero;"/><path d="M40.246,30.606l3.63,0l-0,-6.259l4.256,0l-0,-3.296l-4.256,0l-0,-20.55l-5.55,-0l-13.206,20.446l-0,3.4l15.126,0l-0,6.259Zm-11.413,-9.555l-0,-0.083l11.287,-17.254l0.126,-0l-0,17.337l-11.413,0Z" style="fill-rule:nonzero;"/><path d="M62.361,0c-6.156,0 -10.662,4.298 -10.662,10.223l0,0.042c0,5.716 4.257,9.951 9.994,9.951c4.089,0 7.177,-2.169 8.387,-4.84l0.083,0c-0,0.23 -0,0.439 -0.021,0.647c-0.166,6.321 -2.378,11.767 -7.991,11.767c-3.087,0 -5.235,-1.544 -6.133,-4.026l-0.083,-0.23l-3.819,-0l0.064,0.271c1,4.381 4.818,7.302 9.93,7.302c7.365,-0 11.684,-5.925 11.684,-16.064l0,-0.042c0,-11.162 -5.884,-15.001 -11.433,-15.001Zm-0.022,16.92c-3.963,0 -6.822,-2.816 -6.822,-6.739l0,-0.042c0,-3.796 3.046,-6.801 6.885,-6.801c3.86,-0 6.865,3.067 6.865,6.927l-0,0.021c-0,3.838 -2.985,6.634 -6.928,6.634Z" style="fill-rule:nonzero;"/><path d="M94.574,30.606l3.63,0l-0,-30.105l-3.672,-0l-8.012,5.758l0,3.776l7.97,-5.549l0.084,-0l-0,26.12Z" style="fill-rule:nonzero;"/><path d="M116.188,31.107c6.259,-0 10.703,-4.214 10.724,-10.244l-0,-0.042c-0,-5.778 -4.173,-9.972 -9.952,-9.972c-2.921,-0 -5.424,1.085 -6.844,3.109l-0.083,-0l1.022,-10.119l14.146,-0l0,-3.338l-17.233,-0l-1.544,17.17l3.317,0c0.397,-0.688 0.876,-1.273 1.419,-1.773c1.335,-1.21 3.087,-1.816 5.132,-1.816c3.985,0 6.844,2.838 6.864,6.802l0,0.042c0,4.048 -2.837,6.885 -6.926,6.885c-3.61,-0 -6.28,-2.274 -6.655,-5.257l-0.022,-0.168l-3.692,0l0.02,0.23c0.438,4.903 4.549,8.491 10.307,8.491Z" style="fill-rule:nonzero;"/><path d="M139.596,30.606l19.863,0l-0,-3.338l-14.709,0l0,-0.083l7.156,-7.344c5.529,-5.654 7.052,-8.137 7.052,-11.433l-0,-0.042c-0,-4.715 -3.985,-8.366 -9.43,-8.366c-5.613,-0 -10.119,3.86 -10.119,9.075l-0,0.126l3.63,0l0,-0.104c0,-3.235 2.795,-5.821 6.551,-5.821c3.276,-0 5.592,2.211 5.612,5.278l0,0.042c0,2.503 -0.938,4.131 -5.007,8.366l-10.599,11.057l0,2.587Z" style="fill-rule:nonzero;"/><path d="M163.777,30.606l19.862,0l0,-3.338l-14.708,0l-0,-0.083l7.156,-7.344c5.528,-5.654 7.052,-8.137 7.052,-11.433l-0,-0.042c-0,-4.715 -3.985,-8.366 -9.431,-8.366c-5.612,-0 -10.118,3.86 -10.118,9.075l-0,0.126l3.63,0l-0,-0.104c-0,-3.235 2.795,-5.821 6.551,-5.821c3.275,-0 5.591,2.211 5.612,5.278l-0,0.042c-0,2.503 -0.939,4.131 -5.007,8.366l-10.599,11.057l-0,2.587Z" style="fill-rule:nonzero;"/><path d="M187.958,30.606l19.861,0l0,-3.338l-14.708,0l0,-0.083l7.156,-7.344c5.529,-5.654 7.052,-8.137 7.052,-11.433l0,-0.042c0,-4.715 -3.985,-8.366 -9.431,-8.366c-5.612,-0 -10.118,3.86 -10.118,9.075l0,0.126l3.631,0l-0,-0.104c-0,-3.235 2.795,-5.821 6.551,-5.821c3.275,-0 5.591,2.211 5.612,5.278l-0,0.042c-0,2.503 -0.94,4.131 -5.007,8.366l-10.599,11.057l-0,2.587Z" style="fill-rule:nonzero;"/><path d="M231.04,31.107c6.03,-0 10.453,-3.713 10.453,-8.741l0,-0.042c0,-4.277 -2.983,-7.01 -7.364,-7.386l-0,-0.083c3.755,-0.793 6.383,-3.338 6.383,-7.052l0,-0.042c0,-4.569 -3.776,-7.761 -9.514,-7.761c-5.632,0 -9.513,3.276 -9.993,8.178l-0.02,0.209l3.608,-0l0.022,-0.209c0.313,-3.045 2.837,-4.923 6.383,-4.923c3.672,0 5.738,1.815 5.738,4.965l-0,0.042c-0,3.005 -2.503,5.215 -6.092,5.215l-3.609,0l-0,3.172l3.776,-0c4.214,-0 6.864,2.065 6.864,5.758l0,0.042c0,3.192 -2.691,5.404 -6.635,5.404c-4.005,-0 -6.717,-2.045 -7.03,-5.008l-0.022,-0.209l-3.608,0l0.02,0.251c0.397,4.757 4.423,8.22 10.64,8.22Z" style="fill-rule:nonzero;"/><path d="M256.327,31.107c6.03,-0 10.453,-3.713 10.453,-8.741l-0,-0.042c-0,-4.277 -2.984,-7.01 -7.366,-7.386l0,-0.083c3.756,-0.793 6.385,-3.338 6.385,-7.052l-0,-0.042c-0,-4.569 -3.777,-7.761 -9.514,-7.761c-5.633,0 -9.513,3.276 -9.993,8.178l-0.021,0.209l3.609,-0l0.021,-0.209c0.313,-3.045 2.837,-4.923 6.384,-4.923c3.672,0 5.737,1.815 5.737,4.965l0,0.042c0,3.005 -2.503,5.215 -6.092,5.215l-3.609,0l0,3.172l3.777,-0c4.214,-0 6.864,2.065 6.864,5.758l-0,0.042c-0,3.192 -2.692,5.404 -6.635,5.404c-4.006,-0 -6.718,-2.045 -7.031,-5.008l-0.021,-0.209l-3.609,0l0.021,0.251c0.396,4.757 4.423,8.22 10.64,8.22Z" style="fill-rule:nonzero;"/><path d="M281.613,31.107c6.03,-0 10.452,-3.713 10.452,-8.741l0,-0.042c0,-4.277 -2.983,-7.01 -7.364,-7.386l-0,-0.083c3.756,-0.793 6.384,-3.338 6.384,-7.052l0,-0.042c0,-4.569 -3.776,-7.761 -9.514,-7.761c-5.633,0 -9.513,3.276 -9.993,8.178l-0.021,0.209l3.609,-0l0.021,-0.209c0.314,-3.045 2.838,-4.923 6.384,-4.923c3.672,0 5.738,1.815 5.738,4.965l-0,0.042c-0,3.005 -2.504,5.215 -6.092,5.215l-3.609,0l-0,3.172l3.775,-0c4.215,-0 6.865,2.065 6.865,5.758l0,0.042c0,3.192 -2.692,5.404 -6.635,5.404c-4.005,-0 -6.717,-2.045 -7.031,-5.008l-0.021,-0.209l-3.609,0l0.021,0.251c0.397,4.757 4.423,8.22 10.64,8.22Z" style="fill-rule:nonzero;"/><path d="M316.017,31.107c6.926,-0 11.079,-5.987 11.079,-15.543l-0,-0.042c-0,-9.555 -4.153,-15.522 -11.079,-15.522c-6.927,0 -11.037,5.967 -11.037,15.522l0,0.042c0,9.556 4.11,15.543 11.037,15.543Zm0,-3.276c-4.59,0 -7.26,-4.714 -7.26,-12.267l-0,-0.042c-0,-7.552 2.67,-12.226 7.26,-12.226c4.59,0 7.302,4.674 7.302,12.226l0,0.042c0,7.553 -2.712,12.267 -7.302,12.267Z" style="fill-rule:nonzero;"/><path d="M332.332,30.606l3.943,0l13.395,-26.621l-0,-3.484l-19.925,-0l-0,3.338l16.211,-0l-0,0.083l-13.624,26.684Z" style="fill-rule:nonzero;"/><path d="M364.566,0c-6.155,0 -10.661,4.298 -10.661,10.223l-0,0.042c-0,5.716 4.256,9.951 9.993,9.951c4.089,0 7.178,-2.169 8.388,-4.84l0.083,0c-0,0.23 -0,0.439 -0.021,0.647c-0.167,6.321 -2.378,11.767 -7.991,11.767c-3.087,0 -5.237,-1.544 -6.134,-4.026l-0.083,-0.23l-3.818,-0l0.062,0.271c1.002,4.381 4.82,7.302 9.931,7.302c7.366,-0 11.684,-5.925 11.684,-16.064l-0,-0.042c-0,-11.162 -5.884,-15.001 -11.433,-15.001Zm-0.021,16.92c-3.964,0 -6.822,-2.816 -6.822,-6.739l0,-0.042c0,-3.796 3.046,-6.801 6.884,-6.801c3.861,-0 6.864,3.067 6.864,6.927l0,0.021c0,3.838 -2.983,6.634 -6.926,6.634Z" style="fill-rule:nonzero;"/></svg>